<svg xmlns="http://www.w3.org/2000/svg" id="svg7384" width="16" height="16" version="1.1"><metadata id="metadata90"/><title id="title9167">Gnome Symbolic Icon Theme</title><g id="layer9" transform="translate(-81,-317)"><rect id="rect4906-43-6" width="3" height="2" x="81" y="324" fill="#bebebe" color="#bebebe" enable-background="new" rx=".5" ry=".5"/><rect id="rect4906-4-6-6" width="3" height="2" x="94" y="324" fill="#bebebe" color="#bebebe" enable-background="new" rx=".5" ry=".5"/><rect id="rect8386" width="3" height="2" x="-174.88" y="291.74" fill="#bebebe" color="#bebebe" enable-background="new" rx=".5" ry=".5" transform="rotate(-45)"/><rect id="rect8388" width="3" height="2" x="-161.88" y="291.74" fill="#bebebe" color="#bebebe" enable-background="new" rx=".5" ry=".5" transform="rotate(-45)"/><rect id="rect8390" width="3" height="2" x="-333" y="88" fill="#bebebe" color="#bebebe" enable-background="new" rx=".5" ry=".5" transform="rotate(-90)"/><rect id="rect8392" width="3" height="2" x="-320" y="88" fill="#bebebe" color="#bebebe" enable-background="new" rx=".5" ry=".5" transform="rotate(-90)"/><rect id="rect8394" width="3" height="2" x="-300.74" y="-167.88" fill="#bebebe" color="#bebebe" enable-background="new" rx=".5" ry=".5" transform="rotate(225)"/><rect id="rect8396" width="3" height="2" x="-287.74" y="-167.88" fill="#bebebe" color="#bebebe" enable-background="new" rx=".5" ry=".5" transform="rotate(225)"/><path style="block-progression:tb;text-indent:0;text-transform:none" id="path32729" fill="#bebebe" d="m88.989 321.01c-2.1973 0-3.9793 1.782-3.9793 3.9793s1.782 4.0086 3.9793 4.0086 4.0086-1.8113 4.0086-4.0086-1.8113-3.9793-4.0086-3.9793zm0 1.9896c1.1164 0 2.0189 0.87324 2.0189 1.9896s-0.9025 2.0189-2.0189 2.0189-1.9897-0.90249-1.9897-2.0189 0.87324-1.9896 1.9897-1.9896z" color="#000"/></g></svg>