<svg xmlns="http://www.w3.org/2000/svg" id="svg7384" width="16" height="16" version="1.1"><metadata id="metadata90"/><title id="title9167">Gnome Symbolic Icon Theme</title><g id="layer9" transform="translate(-401 -177)"><path style="block-progression:tb;text-indent:0;text-transform:none" id="path16225" fill="#bebebe" d="m406 184c-0.30943 0.00004-0.61463 0.0905-0.8125 0.28125l-3.6 3.72 3.6562 3.7188c0.19771 0.19101 0.44055 0.28124 0.75 0.28125h1v-1c-0.00005-0.25688-0.12958-0.52871-0.3125-0.71875l-1.28-1.28h5.5938v-2h-5.625l1.2188-1.2812c0.18273-0.19024 0.40624-0.46185 0.40625-0.71875v-1z" color="#000" opacity=".5"/><path id="path3761-2-3-5-4-8-9-8-0-1-7-8-8" fill="#bebebe" d="m412 188h1.375l1.125 1.0938 1.0938-1.0938h1.4062v1.4688l-1.0938 1.0625 1.0938 1.0625v1.4062h-1.4375l-1.0625-1.0625-1.0625 1.0625h-1.4375v-1.4062l1.0625-1.0625-1.0625-1.0625v-1.4688z" color="#bebebe"/><path style="block-progression:tb;text-indent:0;text-transform:none" id="path16205-6" fill="#bebebe" d="m412 186c0.30943-0.00004 0.61463-0.0905 0.8125-0.28125l3.6-3.72-3.66-3.72c-0.19771-0.19101-0.44055-0.28124-0.75-0.28125h-1v1c0.00005 0.25688 0.12958 0.52871 0.3125 0.71875l1.2812 1.2812h-4.5937c-0.52831-0.007-1 0.47164-1 1s0.47169 1.0075 1 1h4.625l-1.2188 1.2812c-0.18273 0.19024-0.40624 0.46185-0.40625 0.71875v1z" color="#000" opacity=".5"/></g></svg>