<svg xmlns="http://www.w3.org/2000/svg" id="svg7384" width="16" height="16" version="1.1"><metadata id="metadata90"/><title id="title9167">Gnome Symbolic Icon Theme</title><g id="layer9" transform="translate(-181 -257)"><path id="path16909" fill="#f57900" fill-rule="evenodd" d="m189 257.06-2.2647 3.4125-3.4125-1.1478 1.1478 3.4125-3.4125 2.2647 3.4125 2.2647-1.1478 3.4125 3.4125-1.1478 2.2647 3.4125 2.2647-3.4125 3.4125 1.1478-1.1478-3.4125 3.4125-2.2647-3.4125-2.2647 1.1478-3.4125-3.4125 1.1478zm-0.99273 4.033h1.9855v4.9326h-1.9855zm1.0238 5.6462c0.70247 0 1.2719 0.56947 1.2719 1.2719 0 0.70247-0.56947 1.2719-1.2719 1.2719-0.70247 0-1.2719-0.56947-1.2719-1.2719 0-0.70247 0.56947-1.2719 1.2719-1.2719z" class="warning" enable-background="new"/></g></svg>