<svg xmlns="http://www.w3.org/2000/svg" id="svg7384" width="16" height="16" version="1.1"><metadata id="metadata90"/><title id="title9167">Gnome Symbolic Icon Theme</title><g id="layer9" transform="translate(-181 -257)"><path id="rect7040" fill="#bebebe" fill-rule="evenodd" d="m189 257.06-2.25 3.4062-3.4375-1.1562 1.1562 3.4375-3.4062 2.25 3.4062 2.25-1.1562 3.4375 3.4375-1.1562 2.25 3.4062 2.25-3.4062 3.4375 1.1562-1.1562-3.4375 3.4062-2.25-3.4062-2.25 1.1562-3.4375-3.4375 1.1562zm0 4.5312 0.71875 0.6875 2 2c0.2236 0.22597 0.33131 0.56107 0.28125 0.875v0.84375h-0.875c-0.30421 0.0401-0.62444-0.0666-0.84375-0.28125l-0.28125-0.28125v2.5625h-2v-2.5625l-0.28125 0.28125c-0.19084 0.18226-0.45489 0.28559-0.71875 0.28125h-0.15625-0.84375v-0.78125c-0.001-0.0312-0.001-0.0625 0-0.0937-0.0401-0.30421 0.0666-0.62444 0.28125-0.84375l2-2z" enable-background="new"/></g></svg>