<svg xmlns="http://www.w3.org/2000/svg" id="svg7384" width="16" height="16" version="1.1"><metadata id="metadata90"/><title id="title9167">Gnome Symbolic Icon Theme</title><g id="layer10" transform="translate(-221,-447)"><path id="rect5222-6-8" fill="#bebebe" d="m227 448c-1.0092 0.005-1 1-1 1v11c0 1 1 1 1 1h4c1 0 1-1 1-1v-8c0.0009-0.554-0.446-1-1-1h-3v-2s-0.009-0.99447-1-1zm0 4h4v3.0312l-4-0.0312zm0 4h1v1h1v-1h1v1h1v1h-1v1h1v1h-1v-1h-1v1h-1v-1h-1v-1h1v-1h-1zm1 2v1h1v-1zm1 0h1v-1h-1z" color="#000"/></g></svg>